<svg width="19" height="18" viewBox="0 0 19 18" fill="none" xmlns="http://www.w3.org/2000/svg">
<g clip-path="url(#clip0_328_7361)">
<path d="M6.25503 11.7628C6.32544 11.6819 6.42224 11.6348 6.52492 11.6348H15.836C16.0061 11.6348 16.0912 11.8706 15.9709 12.0087L14.1316 14.1208C14.0612 14.2017 13.9644 14.2488 13.8617 14.2488H4.55065C4.3805 14.2488 4.29543 14.013 4.4157 13.8749L6.25503 11.7628Z" fill="#535B5F"/>
<path d="M6.25503 3.87605C6.32837 3.79521 6.42518 3.74805 6.52492 3.74805H15.836C16.0061 3.74805 16.0912 3.98385 15.9709 4.12196L14.1316 6.23409C14.0612 6.31494 13.9644 6.3621 13.8617 6.3621H4.55065C4.3805 6.3621 4.29543 6.1263 4.4157 5.98818L6.25503 3.87605Z" fill="#535B5F"/>
<path d="M14.1316 7.79402C14.0612 7.71318 13.9644 7.66602 13.8617 7.66602H4.55065C4.3805 7.66602 4.29543 7.90182 4.4157 8.03993L6.25503 10.1521C6.32544 10.2329 6.42224 10.2801 6.52492 10.2801H15.836C16.0061 10.2801 16.0912 10.0443 15.9709 9.90615L14.1316 7.79402Z" fill="#535B5F"/>
</g>
<defs>
<clipPath id="clip0_328_7361">
<rect width="11.6667" height="10.5" fill="white" transform="translate(4.35938 3.74805)"/>
</clipPath>
</defs>
</svg>
