<svg width="512" height="512" viewBox="0 0 512 512" fill="none" xmlns="http://www.w3.org/2000/svg">
<rect width="512" height="512" fill="#9CFF1F"/>
<path fill-rule="evenodd" clip-rule="evenodd" d="M301.942 388.692C346.736 388.692 383.049 352.379 383.049 307.585C383.049 262.791 346.736 226.478 301.942 226.478C257.147 226.478 220.834 262.791 220.834 307.585C220.834 352.379 257.147 388.692 301.942 388.692ZM301.942 426.199C367.45 426.199 420.555 373.093 420.555 307.585C420.555 242.077 367.45 188.972 301.942 188.972C236.433 188.972 183.328 242.077 183.328 307.585C183.328 373.093 236.433 426.199 301.942 426.199Z" fill="black"/>
<path fill-rule="evenodd" clip-rule="evenodd" d="M386.982 121.146C407.73 141.301 423.843 166.202 433.568 194.097C404.826 165.979 365.489 148.646 322.105 148.646C241.06 148.646 174.142 209.129 164.026 287.419C163.153 280.667 162.703 273.781 162.703 266.791C162.703 178.756 234.07 107.389 322.105 107.389C345.208 107.389 367.163 112.304 386.982 121.146Z" fill="black"/>
<path fill-rule="evenodd" clip-rule="evenodd" d="M438.118 302.842C441.959 287.865 444.002 272.167 444.002 255.992C444.002 243.118 442.708 230.546 440.243 218.399C413.843 188.531 376.277 168.469 333.399 165.075C326.43 164.524 319.531 164.429 312.73 164.766C380.094 178.947 430.549 235.121 438.118 302.842Z" fill="black"/>
<path fill-rule="evenodd" clip-rule="evenodd" d="M357.442 97.6895C344.873 94.8278 331.79 93.3167 318.354 93.3167C221.516 93.3167 143.012 171.82 143.012 268.658C143.012 355.049 205.49 426.847 287.727 441.334C277.413 443.087 266.813 444 256 444C152.171 444 68 359.83 68 256C68 152.17 152.171 68 256 68C293.361 68 328.178 78.8984 357.442 97.6895Z" fill="black"/>
</svg>
