<svg width="1000" height="212" viewBox="0 0 1000 212" fill="none" xmlns="http://www.w3.org/2000/svg">
<path fill-rule="evenodd" clip-rule="evenodd" d="M0 79.9702V149.004H12.9866H25.9732L26.0033 122.006C26.0293 98.6846 26.3765 94.2623 28.5569 89.5393C31.9252 82.2408 36.4117 78.3516 43.2276 76.8206C53.2328 74.5732 61.8818 79.1103 67.4702 89.5393C70.129 94.5015 70.4421 97.5076 70.8454 122.006L71.2896 149.004H83.4902H95.6908V121.229C95.6908 89.7498 94.4905 83.1621 86.6398 71.5617C78.4487 59.4582 66.3369 52.9594 51.915 52.9293C43.0731 52.9116 31.6381 56.5136 29.4864 59.994C26.6977 64.5052 25.9732 59.6003 25.9732 36.2258V10.9361H12.9866H0V79.9702ZM292.54 35.5423C292.54 49.0757 292.252 60.1485 291.899 60.1485C291.547 60.1485 288.855 58.8963 285.92 57.3666C269.052 48.5754 246.087 52.2882 232.254 66.0444C208.469 89.6978 215.575 133.485 245.481 147.542C257.758 153.313 276.231 152.392 286.381 145.505C292.525 141.334 293.526 144.761 294.591 149.004C294.591 149.004 295.694 149.004 306.92 149.004H318.514V79.9702V10.9361H305.527H292.54V35.5423ZM797.812 46.6315C788.977 48.7053 776.641 56.1309 770.287 63.1969C749.014 86.8585 750.143 119.706 772.729 134.205C778.994 138.227 781.095 138.806 790.907 139.225C799.999 139.613 803.257 139.158 808.956 136.707C812.781 135.061 816.972 132.541 818.271 131.107C821.277 127.784 822.941 127.79 822.941 131.121C822.941 137 824.329 138.068 831.972 138.068C836.027 138.068 839.345 137.724 839.345 137.303C839.345 136.882 842.071 119.197 845.402 98.0011C848.733 76.8069 851.884 56.5082 852.404 52.8952L853.348 46.3239L846.05 46.7436C839.503 47.1182 838.535 47.5843 836.656 51.2629C835.503 53.5185 834.447 55.58 834.309 55.8438C834.169 56.1076 831.864 54.6518 829.185 52.6081C820.1 45.6787 810.037 43.7622 797.812 46.6315ZM908.086 47.0949C904.918 48.0847 899.574 50.507 896.21 52.4782C889.755 56.2621 889.457 56.1801 888.036 50.2377C887.207 46.7627 886.626 46.4784 880.355 46.4784C874.44 46.4784 873.483 46.8721 872.872 49.5542C872.487 51.2465 868.161 78.1589 863.261 109.361C858.361 140.563 853.983 168.09 853.53 170.535L852.71 174.977H861.656C869.003 174.977 870.724 174.55 871.286 172.585C871.664 171.27 873.349 160.966 875.033 149.688C876.716 138.41 878.227 128.995 878.389 128.766C878.551 128.536 880.444 130.001 882.596 132.022C888.565 137.631 894.251 139.435 905.943 139.434C914.823 139.434 917.937 138.787 924.783 135.523C941.011 127.788 952.197 113.303 956.346 94.6587C958.291 85.9167 958.376 83.2565 956.923 76.714C954.611 66.3083 951.31 60.2169 944.785 54.3223C935.636 46.056 920.773 43.1292 908.086 47.0949ZM613.304 47.5228C612.726 48.4592 625.298 122.416 628.174 134.992C628.824 137.834 629.63 138.068 638.788 138.068H648.699L662.609 109.703C670.26 94.1023 676.944 80.1069 677.461 78.6032C678.048 76.8971 680.428 86.9228 683.791 105.26C686.755 121.425 689.422 135.42 689.717 136.359C690.081 137.516 693.397 138.068 699.974 138.068H709.693L731.458 93.6334C743.428 69.1954 753.223 48.559 753.223 47.7771C753.223 46.8926 749.797 46.5071 744.19 46.7573L735.157 47.1619L720.01 79.9702C711.68 98.0147 704.672 113.035 704.437 113.348C703.356 114.792 702.454 110.679 697.271 80.7043C694.228 63.0999 691.203 48.1612 690.547 47.505C689.891 46.8489 686.348 46.5044 682.672 46.7381L675.987 47.1619L660.019 79.2867C651.236 96.9553 643.784 112.027 643.46 112.778C643.135 113.53 642.538 113.838 642.132 113.462C641.727 113.086 639.238 98.5068 636.601 81.0638C633.962 63.6207 631.469 48.8051 631.057 48.1407C630.074 46.5495 614.246 46 613.304 47.5228ZM142.169 53.8343C129.713 56.5806 121.702 62.0514 114.299 72.8672C97.3025 97.6962 106.206 134.435 132.317 147.209C138.861 150.411 141.853 151.021 151.048 151.023C163.704 151.027 170.619 148.98 177.069 143.316L181.661 139.285L182.573 144.145L183.484 149.004H194.951H206.419V102.526V56.0475H194.907H183.397L182.499 60.1376L181.601 64.2263L177.191 60.8635C167.69 53.6169 154.844 51.0388 142.169 53.8343ZM374.195 53.3504C359.121 55.919 345.736 66.1128 338.728 80.3625C334.603 88.7491 334.234 90.5645 334.234 102.505C334.234 114.728 334.517 116.035 338.923 124.16C351.724 147.77 381.84 157.838 409.126 147.63C421.731 142.914 421.961 142.541 417.607 133.876C415.555 129.791 413.703 126.253 413.491 126.014C413.28 125.775 409.859 126.544 405.889 127.723C396.675 130.459 382.76 130.472 376.226 127.749C370.557 125.388 360.613 116.383 361.711 114.606C362.101 113.977 377.454 113.462 395.83 113.462H429.241V103.427C429.241 91.0867 426.778 82.5361 420.495 73.0736C410.619 58.1992 392.079 50.3019 374.195 53.3504ZM816.266 64.5038C822.529 68.0239 828.409 78.5006 828.409 86.1422C828.409 108.39 807.056 128.842 789.781 123.14C771.459 117.094 768.234 90.5714 783.688 73.0148C793.502 61.8669 805.839 58.6434 816.266 64.5038ZM926.828 64.4109C942.892 73.4386 942.197 99.7317 925.48 115.366C917.979 122.383 910.174 125.08 901.242 123.741C888.122 121.773 881.595 110.066 884.289 93.3368C886.591 79.0379 892.337 70.1181 902.505 65.0506C911.332 60.6516 919.747 60.4301 926.828 64.4109ZM169.575 79.6325C175.739 83.7869 179.111 89.9876 180.026 98.8554C181.335 111.539 176.347 121.298 166.2 125.907C151.659 132.511 135.606 124.501 131.356 108.52C128.53 97.8944 133.508 85.4587 142.824 79.8745C150.401 75.3319 163.023 75.2171 169.575 79.6325ZM281.744 79.6394C293.991 87.7785 296.237 109.545 285.97 120.614C274.624 132.849 253.542 129.598 246.227 114.487C237.209 95.8589 248.667 76.5704 268.757 76.5581C275.14 76.554 278.189 77.2772 281.744 79.6394ZM391.867 78.7987C396.512 81.0023 403.268 89.1756 403.268 92.5904C403.268 93.915 398.279 94.3238 382.08 94.3238C358.626 94.3238 358.557 94.291 364.209 85.9741C370.213 77.1391 381.952 74.0934 391.867 78.7987Z" fill="#E3E2E5"/>
<path d="M503.06 12.3031C499.77 9.0127 499.642 7.05379 502.455 3.03888C504.468 0.164051 505.539 0 522.365 0C532.146 0 541.339 0.637032 542.794 1.41486C544.515 2.33623 545.438 4.27602 545.438 6.97723C545.438 10.5711 540.132 16.5272 505.604 51.699C481.891 75.8527 464.96 94.1925 463.767 97.0168C460.732 104.198 462.069 114.855 466.78 121.031C470.639 126.09 479.519 131.154 484.606 131.195C494.677 131.278 497.549 129.087 527.667 98.3318C551.803 73.686 557.724 68.3232 560.785 68.3355C565.797 68.356 569.675 74.0004 567.644 78.3174C566.863 79.9783 553.643 94.2554 538.266 110.044C507.317 141.826 502.806 145.086 488.489 146.023C473.064 147.03 459.509 139.73 451.531 126.118C448.581 121.083 446.807 117.749 446.329 108.677C445.368 90.3427 447.84 87.8453 485.532 49.7722L485.936 49.3641C503.625 31.4959 518.098 16.4629 518.098 15.9571C518.098 15.4513 515.329 15.0371 511.946 15.0371C507.617 15.0371 504.984 14.2265 503.06 12.3031Z" fill="url(#paint0_linear_50_1693)"/>
<path d="M506.498 74.1945C535.006 44.8311 539.841 40.7438 549.982 37.4301C561.789 33.571 578.301 37.9045 588.072 47.4243C595.787 54.9402 599.379 64.2563 599.303 76.5526C599.204 92.8898 597.427 95.4679 560.068 133.472L527.332 166.775H533.347C541.021 166.775 545.438 169.772 545.438 174.977C545.438 181.811 541.622 183.179 522.577 183.179C507.617 183.179 505.498 182.883 503.06 180.445C501.557 178.942 500.326 176.441 500.326 174.89C500.326 173.035 513.939 158.182 540.104 131.487C561.981 109.168 580.858 89.0608 582.055 86.8052C584.899 81.4397 584.832 70.1782 581.922 64.6624C576.237 53.8835 561.294 48.8351 550.39 54.0092C547.468 55.3954 534.213 67.9951 518.419 84.3979C503.581 99.8096 489.974 112.978 488.18 113.66C483.555 115.422 478.454 111.863 478.454 106.872C478.454 103.788 483.695 97.6798 506.498 74.1945Z" fill="url(#paint1_linear_50_1693)"/>
<path d="M901.09 210.52H897.09L903.064 172.599H908.103L905.609 188.339C906.718 187.3 907.964 186.503 909.35 185.949C910.735 185.36 912.276 185.066 913.973 185.066C915.704 185.066 917.245 185.412 918.596 186.105C919.981 186.763 921.107 187.681 921.972 188.858C922.873 190.036 923.496 191.421 923.843 193.014C924.189 194.607 924.223 196.304 923.946 198.105C923.669 199.905 923.098 201.602 922.232 203.195C921.366 204.788 920.31 206.174 919.063 207.351C917.817 208.528 916.397 209.464 914.804 210.156C913.245 210.814 911.601 211.143 909.869 211.143C908.241 211.143 906.821 210.866 905.609 210.312C904.397 209.723 903.358 208.927 902.493 207.922L901.09 210.52ZM912.83 189.637C911.826 189.637 910.839 189.793 909.869 190.105C908.934 190.382 908.068 190.867 907.272 191.559C906.51 192.217 905.852 193.083 905.298 194.157C904.744 195.23 904.345 196.546 904.103 198.105C903.895 199.559 903.895 200.823 904.103 201.897C904.311 202.97 904.692 203.871 905.246 204.598C905.8 205.29 906.492 205.81 907.324 206.156C908.189 206.503 909.124 206.676 910.129 206.676C911.133 206.676 912.12 206.451 913.09 206C914.059 205.55 914.925 204.944 915.687 204.182C916.483 203.386 917.159 202.468 917.713 201.429C918.267 200.39 918.631 199.282 918.804 198.105C919.012 196.927 918.994 195.819 918.752 194.78C918.544 193.741 918.163 192.841 917.609 192.079C917.09 191.317 916.414 190.728 915.583 190.313C914.752 189.862 913.834 189.637 912.83 189.637Z" fill="#94C5FD"/>
<path d="M938.907 211.143C937.107 211.143 935.462 210.814 933.973 210.156C932.518 209.464 931.289 208.528 930.284 207.351C929.315 206.174 928.605 204.788 928.155 203.195C927.739 201.602 927.67 199.905 927.947 198.105C928.224 196.304 928.813 194.607 929.713 193.014C930.613 191.421 931.704 190.036 932.986 188.858C934.267 187.681 935.687 186.763 937.245 186.105C938.804 185.412 940.414 185.066 942.076 185.066C943.773 185.066 945.297 185.36 946.647 185.949C947.998 186.538 949.089 187.456 949.92 188.702C950.786 189.949 951.357 191.542 951.634 193.481C951.946 195.386 951.894 197.672 951.478 200.338H932.986C933.089 201.239 933.332 202.087 933.713 202.884C934.094 203.646 934.596 204.321 935.219 204.91C935.843 205.464 936.57 205.897 937.401 206.208C938.232 206.52 939.133 206.676 940.102 206.676C941.418 206.676 942.682 206.433 943.894 205.948C945.106 205.464 946.163 204.823 947.063 204.026L949.712 207.143C948.292 208.355 946.647 209.325 944.777 210.052C942.942 210.779 940.985 211.143 938.907 211.143ZM941.349 189.637C940.552 189.637 939.773 189.793 939.011 190.105C938.249 190.417 937.522 190.849 936.83 191.403C936.137 191.958 935.514 192.616 934.959 193.377C934.405 194.139 933.955 194.97 933.609 195.871H946.751C946.786 195.04 946.699 194.243 946.492 193.481C946.318 192.719 946.007 192.061 945.557 191.507C945.106 190.919 944.535 190.468 943.842 190.157C943.15 189.81 942.319 189.637 941.349 189.637Z" fill="#94C5FD"/>
<path d="M968.271 210.468C966.782 210.953 965.328 211.247 963.908 211.351C962.488 211.455 961.259 211.247 960.22 210.728C959.215 210.243 958.453 209.377 957.934 208.13C957.449 206.849 957.397 205.065 957.778 202.78L959.804 190.157H956.168L956.687 186.676L960.479 185.637L961.57 178.988H966.609L965.518 185.637H972.271L971.596 190.157H964.843L962.713 203.559C962.436 205.221 962.678 206.243 963.44 206.624C964.237 207.005 965.709 207.057 967.856 206.78L968.271 210.468Z" fill="#94C5FD"/>
<path d="M1000 185.637L996.104 210.52H991.844L991.481 207.663C990.442 208.806 989.195 209.671 987.741 210.26C986.321 210.849 984.918 211.143 983.533 211.143C981.802 211.143 980.226 210.814 978.806 210.156C977.421 209.464 976.243 208.528 975.274 207.351C974.339 206.174 973.663 204.788 973.248 203.195C972.867 201.602 972.815 199.905 973.092 198.105C973.369 196.304 973.958 194.607 974.858 193.014C975.793 191.421 976.919 190.036 978.235 188.858C979.55 187.681 981.005 186.763 982.598 186.105C984.226 185.412 985.905 185.066 987.637 185.066C989.022 185.066 990.303 185.343 991.481 185.897C992.693 186.417 993.715 187.248 994.546 188.391L995.74 185.637H1000ZM984.208 206.676C985.213 206.676 986.2 206.451 987.169 206C988.139 205.55 989.005 204.944 989.767 204.182C990.563 203.386 991.238 202.468 991.793 201.429C992.347 200.39 992.71 199.282 992.883 198.105C993.091 196.927 993.074 195.819 992.831 194.78C992.624 193.741 992.243 192.841 991.689 192.079C991.169 191.282 990.494 190.659 989.663 190.209C988.832 189.759 987.914 189.533 986.91 189.533C985.905 189.533 984.918 189.759 983.949 190.209C982.979 190.659 982.096 191.282 981.299 192.079C980.537 192.841 979.879 193.741 979.325 194.78C978.806 195.819 978.442 196.927 978.235 198.105C978.061 199.282 978.079 200.39 978.286 201.429C978.494 202.468 978.875 203.386 979.429 204.182C979.983 204.944 980.659 205.55 981.455 206C982.286 206.451 983.204 206.676 984.208 206.676Z" fill="#94C5FD"/>
<defs>
<linearGradient id="paint0_linear_50_1693" x1="522.74" y1="0" x2="522.74" y2="183.179" gradientUnits="userSpaceOnUse">
<stop stop-color="#C1E7FE"/>
<stop offset="1" stop-color="#94C5FD"/>
<stop offset="1" stop-color="#94C5FD"/>
</linearGradient>
<linearGradient id="paint1_linear_50_1693" x1="522.74" y1="0" x2="522.74" y2="183.179" gradientUnits="userSpaceOnUse">
<stop stop-color="#C1E7FE"/>
<stop offset="1" stop-color="#94C5FD"/>
<stop offset="1" stop-color="#94C5FD"/>
</linearGradient>
</defs>
</svg>
